name kv06_filtered_grf.mot
datacolumns 37
datarows 11
range 1.036500 1.041500
endheader
time	1_ground_force_vx	1_ground_force_vy	1_ground_force_vz	1_ground_force_px	1_ground_force_py	1_ground_force_pz	1_ground_torque_x	1_ground_torque_y	1_ground_torque_z	2_ground_force_vx	2_ground_force_vy	2_ground_force_vz	2_ground_force_px	2_ground_force_py	2_ground_force_pz	2_ground_torque_x	2_ground_torque_y	2_ground_torque_z	3_ground_force_vx	3_ground_force_vy	3_ground_force_vz	3_ground_force_px	3_ground_force_py	3_ground_force_pz	3_ground_torque_x	3_ground_torque_y	3_ground_torque_z	4_ground_force_vx	4_ground_force_vy	4_ground_force_vz	4_ground_force_px	4_ground_force_py	4_ground_force_pz	4_ground_torque_x	4_ground_torque_y	4_ground_torque_z
            1.036500	          -42.345918	          860.383548	          249.772517	            0.111000	            0.000000	            0.208653	           -0.863176	           17.538002	            5.091347	           11.369790	          884.804112	          351.028844	           -0.136891	            0.000000	            0.196373	           -0.061573	           -4.791665	           -1.901000	           15.936038	            0.832854	           -0.957011	            0.378476	            1.022864	            1.081707	           -0.083863	           -0.004383	            0.005036	          -10.112687	            1.281324	           -0.992818	           -0.421262	            1.022060	            1.081110	            0.034306	           -0.004347	            0.003368
            1.037000	          -42.292324	          848.302005	          250.373767	            0.110774	            0.000000	            0.208393	           -0.858420	           17.218236	            5.081910	           11.032245	          879.188767	          349.777466	           -0.136846	            0.000000	            0.196582	           -0.062579	           -4.987073	           -1.984063	           15.935514	            0.834087	           -0.942878	            0.378481	            1.022860	            1.081703	           -0.083850	           -0.004389	            0.004961	          -10.104371	            1.270832	           -1.000934	           -0.421259	            1.022057	            1.081110	            0.034152	           -0.004295	            0.003383
            1.037500	          -42.293645	          836.408549	          251.123198	            0.110555	            0.000000	            0.208139	           -0.854578	           16.900325	            5.074152	           10.719617	          873.669236	          348.577108	           -0.136809	            0.000000	            0.196791	           -0.063534	           -5.178116	           -2.065968	           15.933807	            0.834431	           -0.928200	            0.378486	            1.022855	            1.081699	           -0.083850	           -0.004391	            0.004885	          -10.097509	            1.259042	           -1.006816	           -0.421256	            1.022055	            1.081111	            0.033982	           -0.004237	            0.003388
            1.038000	          -42.343351	          824.700365	          252.000695	            0.110342	            0.000000	            0.207887	           -0.851542	           16.585060	            5.067837	           10.432699	          868.232097	          347.428094	           -0.136779	            0.000000	            0.196997	           -0.064429	           -5.361927	           -2.145606	           15.930879	            0.833938	           -0.913503	            0.378489	            1.022852	            1.081697	           -0.083862	           -0.004390	            0.004809	          -10.092180	            1.246066	           -1.010554	           -0.421252	            1.022053	            1.081112	            0.033797	           -0.004173	            0.003384
            1.038500	          -42.435166	          813.174494	          252.986378	            0.110134	            0.000000	            0.207636	           -0.849201	           16.273034	            5.062697	           10.172296	          862.865112	          346.330217	           -0.136754	            0.000000	            0.197194	           -0.065263	           -5.535914	           -2.221963	           15.926754	            0.832688	           -0.898391	            0.378492	            1.022849	            1.081695	           -0.083887	           -0.004386	            0.004732	          -10.088486	            1.232014	           -1.011952	           -0.421249	            1.022051	            1.081113	            0.033602	           -0.004103	            0.003371
            1.039000	          -42.563084	          801.827939	          254.060857	            0.109931	            0.000000	            0.207382	           -0.847445	           15.964650	            5.058433	            9.939159	          857.557278	          345.282782	           -0.136734	            0.000000	            0.197381	           -0.066038	           -5.697780	           -2.294127	           15.921436	            0.830754	           -0.882920	            0.378495	            1.022846	            1.081692	           -0.083925	           -0.004379	            0.004654	          -10.086501	            1.217000	           -1.010982	           -0.421245	            1.022049	            1.081114	            0.033400	           -0.004030	            0.003348
            1.039500	          -42.721376	          790.657753	          255.205473	            0.109732	            0.000000	            0.207122	           -0.846159	           15.660131	            5.054717	            9.733932	          852.298853	          344.284646	           -0.136718	            0.000000	            0.197552	           -0.066761	           -5.845541	           -2.361296	           15.914936	            0.828209	           -0.867136	            0.378499	            1.022843	            1.081690	           -0.083977	           -0.004370	            0.004576	          -10.086286	            1.201142	           -1.007641	           -0.421241	            1.022048	            1.081115	            0.033194	           -0.003953	            0.003316
            1.040000	          -42.904590	          779.661142	          256.402498	            0.109538	            0.000000	            0.206854	           -0.845232	           15.359536	            5.051199	            9.557100	          847.081366	          343.334257	           -0.136705	            0.000000	            0.197707	           -0.067441	           -5.977537	           -2.422782	           15.907273	            0.825130	           -0.851081	            0.378502	            1.022839	            1.081687	           -0.084041	           -0.004359	            0.004496	          -10.087893	            1.184555	           -1.001941	           -0.421237	            1.022046	            1.081115	            0.032989	           -0.003874	            0.003276
            1.040500	          -43.107551	          768.835538	          257.635308	            0.109346	            0.000000	            0.206574	           -0.844550	           15.062784	            5.047510	            9.408958	          841.897609	          342.429693	           -0.136693	            0.000000	            0.197842	           -0.068088	           -6.092440	           -2.478012	           15.898459	            0.821593	           -0.835141	            0.378503	            1.022837	            1.081686	           -0.084118	           -0.004347	            0.004419	          -10.091345	            1.167359	           -0.994059	           -0.421232	            1.022045	            1.081116	            0.032787	           -0.003793	            0.003230
            1.041000	          -43.325358	          758.178676	          258.888514	            0.109156	            0.000000	            0.206280	           -0.843999	           14.769681	            5.043271	            9.289580	          836.741619	          341.568700	           -0.136684	            0.000000	            0.197956	           -0.068714	           -6.189255	           -2.526534	           15.888549	            0.817674	           -0.818995	            0.378504	            1.022835	            1.081685	           -0.084208	           -0.004334	            0.004341	          -10.096684	            1.149666	           -0.983908	           -0.421228	            1.022043	            1.081116	            0.032591	           -0.003711	            0.003176
            1.041500	          -43.553375	          747.688652	          260.148063	            0.108969	            0.000000	            0.205969	           -0.843467	           14.479953	            5.038102	            9.198803	          831.608643	          340.748733	           -0.136675	            0.000000	            0.198047	           -0.069326	           -6.267315	           -2.568010	           15.877590	            0.813447	           -0.802673	            0.378506	            1.022833	            1.081684	           -0.084309	           -0.004319	            0.004262	          -10.103923	            1.131587	           -0.971558	           -0.421223	            1.022042	            1.081116	            0.032405	           -0.003629	            0.003116
